<?xml version="1.0" encoding="UTF-8"?>
<svg width="11px" height="11px" viewBox="0 0 11 11" version="1.1" xmlns="http://www.w3.org/2000/svg" xmlns:xlink="http://www.w3.org/1999/xlink">
    <!-- Generator: sketchtool 49 (51002) - http://www.bohemiancoding.com/sketch -->
    <title>2DBDD068-5BD3-418F-A3A5-977CD560A174</title>
    <desc>Created with sketchtool.</desc>
    <defs></defs>
    <g id="Page-1" stroke="none" stroke-width="1" fill="none" fill-rule="evenodd" opacity="0.5">
        <g id="Main-page--" transform="translate(-865.000000, -453.000000)" fill="#333A4A">
            <g id="Group-22" transform="translate(825.000000, 372.000000)">
                <g id="Group-21" transform="translate(40.000000, 76.000000)">
                    <g id="Group-20" transform="translate(0.000000, 5.000000)">
                        <path d="M11,10.4815333 L7.74546667,7.24973333 C8.4018,6.4812 8.8,5.48606667 8.8,4.39926667 C8.8,1.9734 6.8266,0 4.4,0 C1.9734,0 0,1.9734 0,4.39926667 C0,6.82586667 1.9734,8.8 4.4,8.8 C5.4758,8.8 6.4614,8.4106 7.22626667,7.76746667 L10.4815333,11 L11,10.4815333 L11,10.4815333 Z M4.4,8.06666667 C2.37453333,8.06666667 0.733333333,6.42326667 0.733333333,4.39926667 C0.733333333,2.37453333 2.37453333,0.733333333 4.4,0.733333333 C6.42473333,0.733333333 8.06666667,2.37453333 8.06666667,4.39926667 C8.06666667,6.42326667 6.42473333,8.06666667 4.4,8.06666667 L4.4,8.06666667 Z" id="Search_1_"></path>
                    </g>
                </g>
            </g>
        </g>
    </g>
</svg>